#!OML:ASF F:\VICON\USERDATA\INSTALL\rory3\rory3.ASF
:FULLY-SPECIFIED
:DEGREES
35
root -0.023295010404471128 17.807688515483356 7.858475419430137 -1.7433803487096284 -3.9555414906401722 -0.10909110896476792
lfemur 4.810714610159776 -2.4535489128145387 -22.004668251120208
ltibia 34.435370028389556
lfoot 4.163395133929774 -4.235410317154864
ltoes -2.962419987984539
rfemur -17.937094660665924 4.321018171949147 22.894277298711238
rtibia 42.29333130982191
rfoot -10.499276965911228 -2.4689428722837925
rtoes 5.652131083650742
lowerback 10.062631086033727 0.11194785947156005 -2.558228118989317
upperback 0.4090457970440314 -0.40828545455730647 1.4691282695508645
thorax -5.070474523752236 -0.0813925428216048 2.95046894301989
lowerneck -16.876187425571754 -2.7514490494652803 -1.4412954181917668
upperneck 21.65813763665602 -3.5095626399489785 0.3757179465526779
head 9.778722964436117 -1.7200611000301747 -0.020536093998708732
lclavicle -2.797198174506335e-15 -4.1600761639867673e-16
lhumerus -22.94175034200983 -2.7249560149005045 81.94757911742195
lradius 30.98668203873022
lwrist 7.628419079760224
lhand -27.930090323874758 23.178790896324553
lfingers 7.1250199999999975
lthumb -1.4493852565425958 53.18760525805027
rclavicle -2.7971981744698225e-15 -4.1600761637387524e-16
rhumerus -32.20331202328871 -24.12375893453222 -76.82922596722536
rradius 23.891231957779738
rwrist 5.454760276349082
rhand -17.36467569339523 21.631629586064577
rfingers 7.1250199999999975
rthumb 9.01479038446026 -7.912127189991844
36
root 0.019878503479614895 17.809537582010265 9.005950296516314 -1.8791094614118091 -4.493939771955253 0.4885862082798216
lfemur 5.206948212083864 -2.6628896001580586 -22.687631101729973
ltibia 36.45675341543084
lfoot 3.721079659770683 -3.761839241269419
ltoes -3.09579636900658
rfemur -18.798879645121858 4.356266647157601 22.443338420840153
rtibia 41.165334271536175
rfoot -11.907646655980777 -2.3445961240190027
rtoes 4.798616201945285
lowerback 9.996862154763829 0.025198297480724885 -2.9018035903820127
upperback 0.431435561408613 -0.5622685746502574 1.3656298393230712
thorax -5.026571104434487 -0.1726898118667768 3.0992134005766925
lowerneck -16.839734851864705 -2.759862392545365 -1.478014669972882
upperneck 21.736098932527312 -3.5234254797398186 0.35159261656448115
head 9.809372673571898 -1.7285436020870273 -0.03173640706069472
lclavicle -2.7971981745097672e-15 -4.1600761640092626e-16
lhumerus -23.420952820721446 -3.3631648959396365 82.15710168016089
lradius 30.634739453007285
lwrist 7.470531421771427
lhand -28.096014913525877 22.955960602156093
lfingers 7.1250199999999975
lthumb -1.5396544822548788 53.060888824609954
rclavicle -2.797198174478488e-15 -4.1600761637960113e-16
rhumerus -31.976523611725387 -24.281451572804325 -76.57103927105324
rradius 24.229387719174078
rwrist 5.987440326964434
rhand -17.372022144636176 21.79780406488054
rfingers 7.1250199999999975
rthumb 9.062146783585362 -7.789496424877677
37
root 0.0727383297256769 17.81390938538389 10.043653716341652 -1.998841569132781 -5.0152737712536375 0.6686577657345927
lfemur 4.983043024667298 -2.610569077399402 -22.729563791098734
ltibia 38.802820790571694
lfoot 3.2595510287412983 -3.1043863357216184
ltoes -4.005400875088239
rfemur -19.5320720825725 4.453350777687801 22.36636457324944
rtibia 40.79514896842617
rfoot -13.545748815099692 -2.862920156784003
rtoes 4.4905937107526555
lowerback 9.932566452369976 -0.025947554753463997 -2.920166326832593
upperback 0.4885592829198052 -0.6701990152517594 1.2675893469827333
thorax -4.958437342629244 -0.24746140350877943 3.124258874053511
lowerneck -16.82998049287628 -2.773756704168825 -1.5197636451392231
upperneck 21.779603714480015 -3.5438284092612515 0.3372834106580771
head 9.837640703028383 -1.734220688787484 -0.04067386605866691
lclavicle -2.797198174509013e-15 -4.160076164002865e-16
lhumerus -23.755532658914984 -4.3154558920789015 82.40685178691162
lradius 30.192296944439395
lwrist 7.242505501880075
lhand -28.094081294266957 22.554358182134784
lfingers 7.1250199999999975
lthumb -1.5046785001942093 52.71646066412801
rclavicle -2.7971981744773585e-15 -4.160076163786866e-16
rhumerus -31.649017059795728 -24.352152924389753 -76.44178152734717
rradius 24.402806268219546
rwrist 6.5386563506639925
rhand -17.339162110202516 21.91395579721838
rfingers 7.1250199999999975
rthumb 9.104747324427176 -7.786397886283664
38
root 0.13314938031808593 17.840676218562837 11.448942484757069 -1.8759189416348052 -5.219131759935794 0.20890370677848402
lfemur 4.778142395482819 -2.417277612903418 -21.87390140780841
ltibia 41.09644559254483
lfoot 2.941437414366596 -2.4243993322112463
ltoes -3.1323746502526704
rfemur -20.03982544353626 4.590553033827921 22.723527293465747
rtibia 40.321062830550176
rfoot -15.161514894098026 -4.206221574653208
rtoes 2.8190869924257136
lowerback 9.870058499585612 -0.1319315903492665 -2.428372618524995
upperback 0.5052667818546401 -0.697334277778856 1.3188486696882218
thorax -4.9472984047923285 -0.2681726910637502 3.056870944826375
lowerneck -16.844372985158387 -2.7824864221915737 -1.5220762564268853
upperneck 21.77858613558617 -3.555468133111789 0.287163953316143
head 9.87117855887053 -1.7382532463167062 -0.07066823499191444
lclavicle -2.7971981745075454e-15 -4.160076163991931e-16
lhumerus -23.853538359309756 -4.9866927673655645 82.72218741013283
lradius 29.652702915991828
lwrist 6.7757719059744
lhand -27.8349238008671 22.36681579303403
lfingers 7.1250199999999975
lthumb -1.2720844225997539 52.49332227527569
rclavicle -2.797198174477851e-15 -4.16007616378916e-16
rhumerus -31.205182002309815 -24.2317617265146 -76.39913127920833
rradius 24.444016375328392
rwrist 7.108379970108315
rhand -17.38160525071381 21.819330948305463
rfingers 7.1250199999999975
rthumb 9.0684748938994 -8.07398303784881
39
root 0.1691229607901324 17.858298135744505 11.545602265769924 -2.0087827217297543 -5.685563702836568 -0.1850780927879807
lfemur 4.597031495870706 -2.1863887596121376 -21.16244305069136
ltibia 43.16728590764249
lfoot 2.5386314399783254 -1.5690589199009584
ltoes -3.1038674879041928
rfemur -20.461662445744114 4.850126465518146 23.1595416098229
rtibia 39.9104400003847
rfoot -16.492672595924503 -5.962136400641774
rtoes 2.0189682238349946
lowerback 9.854290794525625 -0.12644856287705064 -1.9982326719684023
upperback 0.5200208835537123 -0.6246709126195185 1.417262556711987
thorax -4.956796539372915 -0.23668814655963133 2.9425422069986
lowerneck -16.875477544746673 -2.7837919935529287 -1.4743114822609718
upperneck 21.67902473829478 -3.562541244590755 0.26920507364338164
head 9.844423581534654 -1.7417177899495546 -0.08863013405782341
lclavicle -2.797198174511302e-15 -4.160076164013986e-16
lhumerus -24.002866071577202 -5.541764272479792 83.00784717071492
lradius 28.917502044142594
lwrist 6.482430496350331
lhand -27.776268436850337 21.888139090866716
lfingers 7.1250199999999975
lthumb -1.1953685004672363 52.05264376149117
rclavicle -2.797198174479117e-15 -4.1600761637946195e-16
rhumerus -30.734300881146112 -24.069925826315263 -76.45638437450552
rradius 24.29845091631374
rwrist 7.854549603310694
rhand -17.34388567023082 21.820501189742778
rfingers 7.1250199999999975
rthumb 9.04185766971368 -8.180500434507081
